<?xml version="1.0" standalone="no"?>
<svg viewBox="0 0 200 200" xmlns="http://www.w3.org/2000/svg">
  <path fill="#F7E096" d="M34.5,-63.2C43.6,-54.4,49.3,-43.1,56,-32.1C62.7,-21.1,70.5,-10.6,75.5,2.9C80.5,16.3,82.6,32.6,75.1,42.2C67.6,51.8,50.4,54.7,36.3,61.8C22.1,69,11.1,80.4,-2.4,84.6C-15.9,88.8,-31.8,85.6,-44.2,77.5C-56.7,69.4,-65.7,56.3,-72.8,42.5C-79.8,28.8,-84.9,14.4,-81.7,1.9C-78.5,-10.7,-67,-21.3,-58.3,-32.4C-49.7,-43.4,-44,-54.9,-34.8,-63.6C-25.5,-72.4,-12.8,-78.5,0,-78.4C12.7,-78.3,25.3,-72.1,34.5,-63.2Z" transform="translate(100 100)" />
</svg>
